<svg id="Component_1_1" data-name="Component 1 – 1" xmlns="http://www.w3.org/2000/svg" width="552.085" height="187.8" viewBox="0 0 552.085 187.8">
  <g id="Group_3" data-name="Group 3" transform="translate(0 51.008)">
    <path id="Path_1" data-name="Path 1" d="M408.071,262.907l7.086,13.633-11.713,1.015Z" transform="translate(91.115 -212.011)" fill="#91c9f8"/>
    <path id="Path_2" data-name="Path 2" d="M710.418,307.163l-4.628,14.648L717.5,320.8Zm0,0-4.628,14.648L717.5,320.8Zm0,0-4.628,14.648L717.5,320.8Zm0,0-4.628,14.648L717.5,320.8Zm-83.447,12.29a5.842,5.842,0,0,0-2.415-4.6,9.053,9.053,0,0,0-6-1.151l-6.958.6,1.115,12.874,6.958-.6a9.026,9.026,0,0,0,5.714-2.193A5.886,5.886,0,0,0,626.971,319.453Zm83.447-12.29-4.628,14.648L717.5,320.8Zm0,0-4.628,14.648L717.5,320.8Zm-83.447,12.29a5.842,5.842,0,0,0-2.415-4.6,9.053,9.053,0,0,0-6-1.151l-6.958.6,1.115,12.874,6.958-.6a9.026,9.026,0,0,0,5.714-2.193A5.886,5.886,0,0,0,626.971,319.453Zm0,0a5.842,5.842,0,0,0-2.415-4.6,9.053,9.053,0,0,0-6-1.151l-6.958.6,1.115,12.874,6.958-.6a9.026,9.026,0,0,0,5.714-2.193A5.886,5.886,0,0,0,626.971,319.453Zm83.447-12.29-4.628,14.648L717.5,320.8Zm0,0-4.628,14.648L717.5,320.8Zm-83.447,12.29a5.842,5.842,0,0,0-2.415-4.6,9.053,9.053,0,0,0-6-1.151l-6.958.6,1.115,12.874,6.958-.6a9.026,9.026,0,0,0,5.714-2.193A5.886,5.886,0,0,0,626.971,319.453ZM435.838,330.983,431.2,345.631l11.715-1.014Zm191.132-11.529a5.842,5.842,0,0,0-2.415-4.6,9.053,9.053,0,0,0-6-1.151l-6.958.6,1.115,12.874,6.958-.6a9.026,9.026,0,0,0,5.714-2.193A5.886,5.886,0,0,0,626.971,319.453Zm83.447-12.29-4.628,14.648L717.5,320.8Zm0,0-4.628,14.648L717.5,320.8Zm-83.447,12.29a5.842,5.842,0,0,0-2.415-4.6,9.053,9.053,0,0,0-6-1.151l-6.958.6,1.115,12.874,6.958-.6a9.026,9.026,0,0,0,5.714-2.193A5.886,5.886,0,0,0,626.971,319.453ZM435.838,330.983,431.2,345.631l11.715-1.014Zm-28.218,7.5a5.838,5.838,0,0,0-2.411-4.6,9.094,9.094,0,0,0-6-1.151l-6.966.6,1.115,12.821,6.966-.6a9.058,9.058,0,0,0,5.706-2.169A5.784,5.784,0,0,0,407.62,338.48Zm28.218-7.5L431.2,345.631l11.715-1.014Zm191.132-11.529a5.842,5.842,0,0,0-2.415-4.6,9.053,9.053,0,0,0-6-1.151l-6.958.6,1.115,12.874,6.958-.6a9.026,9.026,0,0,0,5.714-2.193A5.886,5.886,0,0,0,626.971,319.453Zm83.447-12.29-4.628,14.648L717.5,320.8Zm0,0-4.628,14.648L717.5,320.8Zm-83.447,12.29a5.842,5.842,0,0,0-2.415-4.6,9.053,9.053,0,0,0-6-1.151l-6.958.6,1.115,12.874,6.958-.6a9.026,9.026,0,0,0,5.714-2.193A5.886,5.886,0,0,0,626.971,319.453ZM435.838,330.983,431.2,345.631l11.715-1.014Zm-28.218,7.5a5.838,5.838,0,0,0-2.411-4.6,9.094,9.094,0,0,0-6-1.151l-6.966.6,1.115,12.821,6.966-.6a9.058,9.058,0,0,0,5.706-2.169A5.784,5.784,0,0,0,407.62,338.48Zm394.82-88.22L280.55,310.99l1.867,76.063,550.217-43.78Zm-28.83,32.287a3.447,3.447,0,0,0,1.582,2.608,4.934,4.934,0,0,0,3.272.749,5,5,0,0,0,3.111-1.308,3.457,3.457,0,0,0,1.107-2.833l5.167-.447a7.6,7.6,0,0,1-2.334,6.109,12.046,12.046,0,0,1-13.723,1.187A7.58,7.58,0,0,1,768.436,283ZM335.119,368.473l-20.351-20.822,1.948,22.423-8.443.728-3.207-36.923,7.067-.612,20.31,20.822L330.5,331.667l8.439-.728,3.207,36.931Zm15.783-1.364-3.207-36.931,27.9-2.422.6,6.865L356.782,336.3l.7,8.02,17.143-1.489.576,6.648-17.143,1.489.741,8.539,20.109-1.738.592,6.861ZM414.936,345a12.473,12.473,0,0,1-5.155,5.123,21.022,21.022,0,0,1-8.386,2.35l-7.433.64.885,10.185-8.547.74-3.211-36.931,15.992-1.38a20.509,20.509,0,0,1,8.66.893,12.726,12.726,0,0,1,5.972,4.161A13.953,13.953,0,0,1,414.936,345Zm35.2,13.5-3.96-7.626-17.147,1.489-2.588,8.193-8.757.761,13.256-38.351,8.443-.74,19.711,35.5Zm38.411-8.4a11.953,11.953,0,0,1-4.946,4.6,21.72,21.72,0,0,1-8.467,2.278,30.445,30.445,0,0,1-8.568-.451A19.853,19.853,0,0,1,459.73,354l2.342-6.684a19.746,19.746,0,0,0,5.887,2.306,21.249,21.249,0,0,0,6.632.483,10.482,10.482,0,0,0,5.292-1.545,3.247,3.247,0,0,0,1.481-3.026,2.7,2.7,0,0,0-1.215-2.093,7.719,7.719,0,0,0-2.76-1.171c-1.1-.266-2.588-.523-4.443-.789a57.462,57.462,0,0,1-7.087-1.4,11.162,11.162,0,0,1-4.894-2.817,8.709,8.709,0,0,1-2.443-5.743,10.273,10.273,0,0,1,1.235-5.98,11.661,11.661,0,0,1,4.894-4.592,21.512,21.512,0,0,1,8.439-2.278,28.351,28.351,0,0,1,6.986.25,20.618,20.618,0,0,1,6.117,1.911l-2.077,6.72a20.712,20.712,0,0,0-10.487-2.02,9.639,9.639,0,0,0-5.2,1.626,3.57,3.57,0,0,0-1.453,3.211,3.024,3.024,0,0,0,2.229,2.652,31.705,31.705,0,0,0,6.2,1.288,62.32,62.32,0,0,1,7.087,1.408,11.526,11.526,0,0,1,4.881,2.761,8.574,8.574,0,0,1,2.443,5.686A10.2,10.2,0,0,1,488.544,350.094Zm23.727,3.018-8.54.74-2.608-29.965-11.811,1.022-.6-6.958,32.178-2.8.6,6.966-11.815,1.026Zm16.4-1.429-3.2-36.923,27.908-2.423.6,6.857-19.413,1.682.692,8.02,17.147-1.489.575,6.648-17.143,1.489.74,8.547,20.1-1.746.6,6.861Zm63.809-9.308q-4.032,4.763-11.944,5.449t-12.7-3.308q-4.787-3.99-5.485-12.117l-1.791-20.681,8.539-.741,1.771,20.363q.851,9.912,9.091,9.2a7.74,7.74,0,0,0,5.908-2.93q1.907-2.578,1.461-7.7l-1.763-20.363,8.439-.732,1.791,20.677Q596.5,337.625,592.483,342.375Zm36.693.6-8.02-9.666-.418.036-7.437.64.9,10.29-8.548.74-3.2-36.923,15.984-1.392a20.7,20.7,0,0,1,8.66.9,12.686,12.686,0,0,1,5.968,4.161,12.838,12.838,0,0,1,2.572,6.95,12.072,12.072,0,0,1-6.584,12.314l9.308,11.155Zm15.24-1.328-3.2-36.922,8.552-.74,3.2,36.923Zm14.934-1.288-.475-5.542,18.141-26.186-19.844,1.726-.6-6.966,31.071-2.7.483,5.541-18.085,26.182,20.995-1.823.6,6.962Zm65.37-5.67-3.96-7.634-17.147,1.489-2.588,8.193-8.757.761,13.256-38.351,8.443-.728,19.711,35.494Zm27.156-2.358-8.539.74-2.6-29.965-11.819,1.026-.6-6.97L760.5,294.37l.6,6.97-11.823,1.022Zm38.2-11.284-17.155,1.481-2.576,8.2-8.761.761,13.26-38.359,8.439-.728L803,327.892l-8.962.777Zm-84.288.769L717.5,320.8l-7.087-13.634Zm-81.234-6.958a9.053,9.053,0,0,0-6-1.151l-6.958.6,1.115,12.874,6.958-.6a9.026,9.026,0,0,0,5.714-2.193,6.708,6.708,0,0,0-.833-9.529ZM431.2,345.631l11.715-1.014-7.079-13.634ZM405.21,333.88a9.094,9.094,0,0,0-6-1.151l-6.966.6,1.115,12.821,6.966-.6a9.058,9.058,0,0,0,5.706-2.169,6.671,6.671,0,0,0-.821-9.5Zm2.411,4.6a5.838,5.838,0,0,0-2.411-4.6,9.094,9.094,0,0,0-6-1.151l-6.966.6,1.115,12.821,6.966-.6a9.058,9.058,0,0,0,5.706-2.169A5.784,5.784,0,0,0,407.62,338.48Zm28.218-7.5L431.2,345.631l11.715-1.014Zm191.132-11.529a5.842,5.842,0,0,0-2.415-4.6,9.053,9.053,0,0,0-6-1.151l-6.958.6,1.115,12.874,6.958-.6a9.026,9.026,0,0,0,5.714-2.193A5.886,5.886,0,0,0,626.971,319.453Zm83.447-12.29-4.628,14.648L717.5,320.8Zm0,0-4.628,14.648L717.5,320.8Zm-83.447,12.29a5.842,5.842,0,0,0-2.415-4.6,9.053,9.053,0,0,0-6-1.151l-6.958.6,1.115,12.874,6.958-.6a9.026,9.026,0,0,0,5.714-2.193A5.886,5.886,0,0,0,626.971,319.453ZM435.838,330.983,431.2,345.631l11.715-1.014Zm-28.218,7.5a5.838,5.838,0,0,0-2.411-4.6,9.094,9.094,0,0,0-6-1.151l-6.966.6,1.115,12.821,6.966-.6a9.058,9.058,0,0,0,5.706-2.169A5.784,5.784,0,0,0,407.62,338.48Zm219.35-19.027a5.842,5.842,0,0,0-2.415-4.6,9.053,9.053,0,0,0-6-1.151l-6.958.6,1.115,12.874,6.958-.6a9.026,9.026,0,0,0,5.714-2.193A5.886,5.886,0,0,0,626.971,319.453Zm83.447-12.29-4.628,14.648L717.5,320.8Zm0,0-4.628,14.648L717.5,320.8Zm-83.447,12.29a5.842,5.842,0,0,0-2.415-4.6,9.053,9.053,0,0,0-6-1.151l-6.958.6,1.115,12.874,6.958-.6a9.026,9.026,0,0,0,5.714-2.193A5.886,5.886,0,0,0,626.971,319.453Zm0,0a5.842,5.842,0,0,0-2.415-4.6,9.053,9.053,0,0,0-6-1.151l-6.958.6,1.115,12.874,6.958-.6a9.026,9.026,0,0,0,5.714-2.193A5.886,5.886,0,0,0,626.971,319.453Zm83.447-12.29-4.628,14.648L717.5,320.8Zm0,0-4.628,14.648L717.5,320.8Zm-83.447,12.29a5.842,5.842,0,0,0-2.415-4.6,9.053,9.053,0,0,0-6-1.151l-6.958.6,1.115,12.874,6.958-.6a9.026,9.026,0,0,0,5.714-2.193A5.886,5.886,0,0,0,626.971,319.453Zm0,0a5.842,5.842,0,0,0-2.415-4.6,9.053,9.053,0,0,0-6-1.151l-6.958.6,1.115,12.874,6.958-.6a9.026,9.026,0,0,0,5.714-2.193A5.886,5.886,0,0,0,626.971,319.453Zm83.447-12.29-4.628,14.648L717.5,320.8Zm0,0-4.628,14.648L717.5,320.8Zm-83.447,12.29a5.842,5.842,0,0,0-2.415-4.6,9.053,9.053,0,0,0-6-1.151l-6.958.6,1.115,12.874,6.958-.6a9.026,9.026,0,0,0,5.714-2.193A5.886,5.886,0,0,0,626.971,319.453Zm83.447-12.29-4.628,14.648L717.5,320.8Zm0,0-4.628,14.648L717.5,320.8Z" transform="translate(-280.55 -250.26)" fill="#91c9f8"/>
  </g>
  <g id="Group_4" data-name="Group 4" transform="translate(102.27)">
    <path id="Path_3" data-name="Path 3" d="M321.492,306.606a43.092,43.092,0,0,1-12.1-2.7l5.276-16.729a38.38,38.38,0,0,0,9.956,2.648,41.742,41.742,0,0,0,10.451.109q5.294-.628,5.075-2.491c-.1-.849-.813-1.409-2.137-1.686a58.193,58.193,0,0,0-6.7-.749,79.207,79.207,0,0,1-11.65-1.4,19.623,19.623,0,0,1-8.821-4.423q-3.984-3.4-4.761-9.972a16.2,16.2,0,0,1,2.25-10.407,23.191,23.191,0,0,1,9.055-8.33,40.547,40.547,0,0,1,14.978-4.455,56.731,56.731,0,0,1,12.113-.145,39.189,39.189,0,0,1,10.833,2.5l-4.8,16.572a32.982,32.982,0,0,0-16.99-2.463,11.435,11.435,0,0,0-4.238,1.147c-.93.543-1.356,1.171-1.268,1.891q.139,1.177,2.125,1.586a43.08,43.08,0,0,0,6.383.588,76.157,76.157,0,0,1,11.735,1.3,20.426,20.426,0,0,1,8.962,4.306q4.014,3.308,4.785,9.775a17.243,17.243,0,0,1-2.036,10.527,21.6,21.6,0,0,1-8.853,8.354,41.712,41.712,0,0,1-15.373,4.507A66.883,66.883,0,0,1,321.492,306.606Z" transform="translate(-305.963 -213.284)" fill="#91c9f8"/>
    <path id="Path_4" data-name="Path 4" d="M326.515,264.007a6.709,6.709,0,0,1,2.982,5.063,15.862,15.862,0,0,1-1.521,8.133l-3.071,6.825-9.7,1.151,1.63-8.048q-4.4-1.068-4.982-5.972a6.735,6.735,0,0,1,1.722-5.622,11.51,11.51,0,0,1,12.942-1.529Z" transform="translate(-288.345 -161.763)" fill="#0f273a"/>
    <path id="Path_5" data-name="Path 5" d="M337,264.992l-16.274,1.928-1.972-16.664,55.1-6.523,1.972,16.669-16.274,1.924,4.781,40.392-22.552,2.672Z" transform="translate(-267.278 -218.995)" fill="#91c9f8"/>
    <path id="Path_6" data-name="Path 6" d="M333.811,245.576l22.548-2.668,6.753,57.056-22.548,2.668Z" transform="translate(-221.744 -221.487)" fill="#91c9f8"/>
    <path id="Path_7" data-name="Path 7" d="M361.991,301.46a23.638,23.638,0,0,1-11.187-8.02,27.094,27.094,0,0,1-5.123-13.461l-3.807-32.158,22.552-2.668,3.722,31.47q1.117,9.417,8.077,8.588,6.857-.809,5.747-10.222l-3.723-31.47L400.4,240.9l3.807,32.158a27.093,27.093,0,0,1-1.839,14.282,23.672,23.672,0,0,1-8.958,10.407,39.508,39.508,0,0,1-31.422,3.719Z" transform="translate(-197.36 -227.575)" fill="#91c9f8"/>
    <path id="Path_8" data-name="Path 8" d="M378.412,297.8a29.649,29.649,0,0,1-13.079-9.288,30.161,30.161,0,0,1-3.666-30.979,29.631,29.631,0,0,1,10.548-12.085,36.967,36.967,0,0,1,16.459-5.827,39.327,39.327,0,0,1,15.924,1,27.826,27.826,0,0,1,12.367,7.884L404,262.465q-5.885-6.061-12.354-5.3a10.661,10.661,0,0,0-7.7,4.246q-2.7,3.646-2.016,9.433t4.165,8.7a10.655,10.655,0,0,0,8.475,2.33q6.471-.767,10.777-8.036l15.864,10.548a27.766,27.766,0,0,1-10.181,10.552,39.408,39.408,0,0,1-15.252,4.688A37,37,0,0,1,378.412,297.8Z" transform="translate(-145.706 -232.521)" fill="#91c9f8"/>
    <path id="Path_9" data-name="Path 9" d="M420.432,285.832l-22.158,2.62-2.386,9.232-21.566,2.551,18.343-60.026,22.157-2.624,31.852,54.086-21.864,2.588Zm-7.57-14.415L406.073,258.6l-3.7,14.061Z" transform="translate(-99.228 -237.585)" fill="#91c9f8"/>
  </g>
</svg>
